<svg width="28" height="28" viewBox="0 0 28 28" fill="none" xmlns="http://www.w3.org/2000/svg">
<path d="M13.1449 0.230471L12.2531 2.2666C11.7923 2.29461 11.333 2.35285 10.8781 2.44063L9.5139 0.679061L8.04354 1.17898L8.03621 3.4202C7.41336 3.74035 6.81646 4.12742 6.25262 4.57918L4.17459 3.64355L3.1107 4.77518L4.17453 6.79297C3.83164 7.28199 3.53439 7.79328 3.28285 8.32191L1.00133 8.38414L0.538092 9.8654L2.38016 11.2223C2.29197 11.7719 2.24891 12.3273 2.24645 12.8831L0.201172 13.9194L0.415392 15.4575L2.66029 15.897C2.79412 16.3647 2.95953 16.8243 3.15834 17.2739L1.67891 19.1105L2.50467 20.4252L4.80447 19.8869C4.9492 20.0565 5.09961 20.2242 5.2567 20.3867C5.58734 20.7286 5.93434 21.0433 6.29498 21.3315L5.8482 23.635L7.19223 24.4114L8.94816 22.8824C9.4524 23.0853 9.9697 23.2474 10.4954 23.3694L11.0686 25.6198L12.6158 25.7462L13.546 23.6239C14.1887 23.5852 14.8294 23.4891 15.4594 23.3346L16.9371 25.0467L18.3781 24.4699L18.3359 23.6019L14.9723 21.0513C13.9931 21.2989 12.9777 21.3652 11.9803 21.2527C10.1197 21.0429 8.3317 20.2027 6.9285 18.7515C3.72119 15.4343 3.81289 10.1576 7.12994 6.95041C8.73658 5.39691 10.8032 4.60883 12.8721 4.5865C15.0747 4.56272 17.2792 5.40658 18.9329 7.11699C21.6245 9.9009 21.9913 14.0888 20.0792 17.2593L21.9524 18.6802C22.1866 18.3122 22.3974 17.9331 22.5823 17.5449L24.8472 17.4826L25.3105 16.0014L23.4813 14.6537C23.57 14.0996 23.6139 13.5384 23.6149 12.9783L25.6474 11.9456L25.4333 10.4075L23.1903 9.968C23.003 9.3239 22.7541 8.69293 22.4432 8.08572L23.7798 6.23451L22.8862 4.96555L20.6854 5.60457C20.6578 5.57527 20.6309 5.54557 20.6029 5.51668C20.2515 5.15311 19.8805 4.82 19.4933 4.51684L19.9145 2.34154L18.5703 1.56523L16.9004 3.01918C16.3598 2.80162 15.8046 2.63229 15.2414 2.50648L14.694 0.356801L13.1449 0.230471ZM9.7373 9.2246C9.1312 9.2315 8.53045 9.3804 7.97949 9.6512L10.6291 11.6618C11.4304 12.2697 11.6577 13.4251 11.0428 14.2362C10.4277 15.0477 9.2465 15.1697 8.43359 14.5531L5.78586 12.5444C5.51475 13.9971 6.02814 15.5363 7.28551 16.4903C8.41315 17.3456 9.8604 17.5057 11.107 17.0579L11.3871 16.9572L11.6232 17.1366L19.5445 23.1463L19.7806 23.3257L19.7605 23.6223C19.6646 24.9436 20.2052 26.2948 21.3334 27.1507C22.5908 28.1046 24.2129 28.1837 25.5392 27.5315L22.8916 25.5229C22.0787 24.9062 21.879 23.7355 22.4943 22.9247C23.1096 22.1137 24.2836 22.022 25.0852 22.6298L27.7329 24.6386C28.0034 23.1864 27.4921 21.6464 26.2351 20.6926C25.1035 19.8338 23.6677 19.6636 22.4284 20.1048L22.15 20.2037L21.9139 20.0242L13.9926 14.0147L13.7565 13.8352L13.7766 13.5405C13.8675 12.2288 13.3167 10.8924 12.1854 10.034C11.4504 9.4764 10.5904 9.2149 9.7374 9.2247L9.7373 9.2246ZM12.2898 14.5127L21.8919 21.7985L21.2308 22.6719L11.627 15.3843L12.2898 14.5127Z" fill="#FAFF00"/>
</svg>
